<svg width="28" height="18" viewBox="0 0 28 18" fill="none" xmlns="http://www.w3.org/2000/svg">
<path d="M28 0.633944L23.5716 17.1412C23.5716 17.1412 22.9517 18.286 21.2483 17.737L11.0291 11.9443L7.30984 10.6162L1.05779 9.06172C1.05779 9.06172 0.098221 8.81058 0.00523983 8.26065C-0.0877413 7.71071 1.08754 7.41191 1.08754 7.41191L25.9557 0.198577C25.9557 0.198577 28 -0.465013 28 0.633944Z" fill="#FFC63C"/>
<path d="M10.2438 16.9561C10.2438 16.9561 9.945 16.935 9.57432 16.0652C9.20364 15.1954 7.31305 10.62 7.31305 10.62L22.3324 3.56261C22.3324 3.56261 23.2002 3.174 23.1692 3.56261C23.1692 3.56261 23.3242 3.63135 22.8593 3.95214C22.3944 4.27293 11.0608 11.8115 11.0608 11.8115" fill="#FCB300"/>
<path d="M14.9434 14.1651L10.9018 16.8904C10.8072 16.9407 10.6974 16.973 10.5819 16.9845C10.4665 16.9961 10.349 16.9864 10.2397 16.9564L11.0134 11.8945" fill="#C7950E"/>
</svg>
