<svg width="32" height="32" viewBox="0 0 32 32" fill="none" xmlns="http://www.w3.org/2000/svg">
<rect width="32" height="32" rx="16" fill="#42BCE8"/>
<path d="M23.3561 11.3477L20.9275 20.4009C20.9275 20.4009 20.5875 21.0287 19.6533 20.7276L14.0487 17.5507L12.009 16.8223L8.58013 15.9698C8.58013 15.9698 8.05387 15.832 8.00287 15.5304C7.95188 15.2288 8.59644 15.065 8.59644 15.065L22.235 11.1089C22.235 11.1089 23.3561 10.745 23.3561 11.3477Z" fill="white"/>
<path d="M13.618 20.2993C13.618 20.2993 13.4541 20.2878 13.2508 19.8107C13.0475 19.3337 12.0107 16.8243 12.0107 16.8243L20.2478 12.9536C20.2478 12.9536 20.7237 12.7405 20.7067 12.9536C20.7067 12.9536 20.7917 12.9913 20.5368 13.1673C20.2818 13.3432 14.0661 17.4778 14.0661 17.4778" fill="#D2E5F1"/>
</svg>
